<?xml version="1.0" encoding="utf-8"?>
<!-- Generator: Adobe Illustrator 15.1.0, SVG Export Plug-In . SVG Version: 6.00 Build 0)  -->
<!DOCTYPE svg PUBLIC "-//W3C//DTD SVG 1.1//EN" "http://www.w3.org/Graphics/SVG/1.1/DTD/svg11.dtd">
<svg version="1.1" id="Layer_1" xmlns="http://www.w3.org/2000/svg" xmlns:xlink="http://www.w3.org/1999/xlink" x="0px" y="0px"
	 width="297.641px" height="312px" viewBox="0 0 297.641 312" enable-background="new 0 0 297.641 312" xml:space="preserve">
<linearGradient id="SVGID_1_" gradientUnits="userSpaceOnUse" x1="152.6462" y1="16.4092" x2="152.6462" y2="309.0376" gradientTransform="matrix(1 0 0 -1 0 313)">
	<stop  offset="0" style="stop-color:#414042"/>
	<stop  offset="1" style="stop-color:#FFFFFF"/>
</linearGradient>
<ellipse fill="url(#SVGID_1_)" cx="152.646" cy="150.277" rx="141.818" ry="146.314"/>
<linearGradient id="SVGID_2_" gradientUnits="userSpaceOnUse" x1="152.4998" y1="20.3721" x2="152.4997" y2="313.0005" gradientTransform="matrix(1 0 0 -1 0 313)">
	<stop  offset="0" style="stop-color:#EF4136"/>
	<stop  offset="1" style="stop-color:#FFFFFF"/>
</linearGradient>
<ellipse fill="url(#SVGID_2_)" cx="152.499" cy="146.314" rx="141.819" ry="146.314"/>
<path fill="#F1F1F1" d="M15.836,145.446c0-78.14,61.252-141.484,136.813-141.484c75.558,0,136.809,63.344,136.809,141.484
	c0,78.135-61.251,141.479-136.809,141.479C77.088,286.926,15.836,223.581,15.836,145.446z"/>
<path fill="#F1F1F1" d="M15.01,145.446c0-78.141,61.253-141.484,136.813-141.484c75.558,0,136.809,63.344,136.809,141.484
	c0,78.135-61.251,141.479-136.809,141.479C76.262,286.926,15.01,223.581,15.01,145.446z"/>
<g>
	
		<linearGradient id="SVGID_3_" gradientUnits="userSpaceOnUse" x1="-416.5916" y1="217.54" x2="-416.5916" y2="359.4287" gradientTransform="matrix(-0.9904 -0.1381 0.1381 -0.9904 -572.5386 340.2083)">
		<stop  offset="0" style="stop-color:#BE1E2D"/>
		<stop  offset="0.2297" style="stop-color:#C84430"/>
		<stop  offset="0.734" style="stop-color:#E4883A"/>
		<stop  offset="0.9939" style="stop-color:#FBB040"/>
	</linearGradient>
	<path fill="url(#SVGID_3_)" d="M-135.706,181.479c25.319-12.625,24.411-30.251,31.674-29.239c7.265,1.014-7.606-46.832,7.087-50.84
		c14.694-4.012-18.824-31.571-14.712-35.709c4.111-4.137-20.914-18.289-23.064-27.333"/>
	
		<linearGradient id="SVGID_4_" gradientUnits="userSpaceOnUse" x1="124.594" y1="115.6196" x2="124.594" y2="257.5122" gradientTransform="matrix(0.9886 -0.1503 -0.1503 -0.9886 -241.4567 314.7722)">
		<stop  offset="0" style="stop-color:#BE1E2D"/>
		<stop  offset="0.2297" style="stop-color:#C84430"/>
		<stop  offset="0.734" style="stop-color:#E4883A"/>
		<stop  offset="0.9939" style="stop-color:#FBB040"/>
	</linearGradient>
	<path fill="url(#SVGID_4_)" d="M-129.868,180.864c-25.473-12.313-24.781-29.949-32.031-28.848c-7.25,1.104,7.027-46.92-7.714-50.75
		c-14.743-3.828,18.432-31.798,14.27-35.885s20.686-18.547,22.725-27.616"/>
</g>
<linearGradient id="SVGID_5_" gradientUnits="userSpaceOnUse" x1="-93.1951" y1="135.1318" x2="-93.1951" y2="248.4253" gradientTransform="matrix(1 0 0 -1 0 313)">
	<stop  offset="0" style="stop-color:#ED1C24"/>
	<stop  offset="0.1763" style="stop-color:#EE2324"/>
	<stop  offset="0.3309" style="stop-color:#EE3325"/>
	<stop  offset="0.4775" style="stop-color:#EF4826"/>
	<stop  offset="0.619" style="stop-color:#F16029"/>
	<stop  offset="0.757" style="stop-color:#F47A2F"/>
	<stop  offset="0.8905" style="stop-color:#F89637"/>
	<stop  offset="0.9939" style="stop-color:#FBB040"/>
</linearGradient>
<path fill="url(#SVGID_5_)" d="M-112.718,177.711c-13.038-11.29-16.88-32.992-16.88-32.992l8.439-29.646
	c0,0,4.546-14.823,13.202-24.386s11.652-15.778,11.887-24.386c0.232-8.606,7.158,17.691,13.218,19.126
	c6.06,1.435,19.91,38.729,20.343,25.342c0.434-13.388,3.03,40.644,5.627,33.471C-54.286,137.068-109.142,180.809-112.718,177.711z"
	/>
<linearGradient id="SVGID_6_" gradientUnits="userSpaceOnUse" x1="-326.6716" y1="65.0029" x2="-326.6716" y2="178.2964" gradientTransform="matrix(-1 0 0 -1 71.7485 302.5137)">
	<stop  offset="0" style="stop-color:#ED1C24"/>
	<stop  offset="0.1763" style="stop-color:#EE2324"/>
	<stop  offset="0.3309" style="stop-color:#EE3325"/>
	<stop  offset="0.4775" style="stop-color:#EF4826"/>
	<stop  offset="0.619" style="stop-color:#F16029"/>
	<stop  offset="0.757" style="stop-color:#F47A2F"/>
	<stop  offset="0.8905" style="stop-color:#F89637"/>
	<stop  offset="0.9939" style="stop-color:#FBB040"/>
</linearGradient>
<path fill="url(#SVGID_6_)" d="M417.941,237.354c13.039-11.291,16.881-32.992,16.881-32.992l-8.439-29.646
	c0,0-4.547-14.822-13.203-24.386c-8.655-9.563-11.651-15.778-11.885-24.386c-0.234-8.606-7.16,17.691-13.219,19.126
	c-6.06,1.435-19.91,38.729-20.342,25.342c-0.435-13.388-3.031,40.644-5.627,33.471C359.509,196.71,414.365,240.449,417.941,237.354z
	"/>
<linearGradient id="SVGID_7_" gradientUnits="userSpaceOnUse" x1="383.0701" y1="287.0762" x2="383.0701" y2="445.0361" gradientTransform="matrix(1 0 0 -1 0 313)">
	<stop  offset="0" style="stop-color:#ED1C24"/>
	<stop  offset="0.3197" style="stop-color:#F2652A"/>
	<stop  offset="0.6346" style="stop-color:#F78E35"/>
	<stop  offset="0.8679" style="stop-color:#FAA63C"/>
	<stop  offset="0.9939" style="stop-color:#FBB040"/>
</linearGradient>
<path fill="url(#SVGID_7_)" d="M353.001,25.704c-20.082-15.742-26-46-26-46l13-41.334c0,0,7.001-20.667,20.334-34
	s17.948-22,18.308-33.999c0.359-12,11.025,24.666,20.359,26.666c9.332,2,30.666,53.999,31.332,35.333
	c0.668-18.666,4.668,56.667,8.668,46.667S358.509,30.021,353.001,25.704z"/>
<linearGradient id="SVGID_8_" gradientUnits="userSpaceOnUse" x1="-135.7058" y1="298.4326" x2="-135.7058" y2="461.8555" gradientTransform="matrix(1 0 0 -1 0 313)">
	<stop  offset="0" style="stop-color:#ED1C24"/>
	<stop  offset="0.1557" style="stop-color:#EE2524"/>
	<stop  offset="0.3394" style="stop-color:#EF3A24"/>
	<stop  offset="0.5371" style="stop-color:#F05323"/>
	<stop  offset="0.7449" style="stop-color:#F36F21"/>
	<stop  offset="0.9583" style="stop-color:#F78D1E"/>
	<stop  offset="1" style="stop-color:#F7941E"/>
</linearGradient>
<path fill="url(#SVGID_8_)" d="M-145.744-148.856c8.665,23.223,4.16,35.872-5.547,45.926c-10.57,11.09-27.034,19.409-38.645,35.698
	c-15.423,21.663-18.023,69.32,37.604,81.799c-23.395-12.304-28.42-48.006-3.118-70.359c-6.587,21.662,5.547,35.526,20.622,30.501
	c14.732-5.027,24.438,5.545,24.092,17.676c-0.175,8.319-3.469,15.424-11.959,19.408C-86.476,5.383-71.92-24.6-71.92-47.474
	c0-30.155-26.86-34.313-13.344-59.616c-16.117,1.387-21.663,11.956-20.104,29.289c1.041,11.438-10.917,19.234-19.754,14.035
	c-7.106-4.332-6.934-12.65-0.693-18.889C-112.471-95.826-107.272-126.154-145.744-148.856z"/>
<g>
	<title>Layer 1</title>
	
		<linearGradient id="svg_24_1_" gradientUnits="userSpaceOnUse" x1="106.1125" y1="371.4902" x2="106.1125" y2="565.4912" gradientTransform="matrix(1 0 0 -1 0 313)">
		<stop  offset="0" style="stop-color:#ED1C24"/>
		<stop  offset="0.1528" style="stop-color:#EE2624"/>
		<stop  offset="0.3381" style="stop-color:#EF3B24"/>
		<stop  offset="0.5402" style="stop-color:#F05423"/>
		<stop  offset="0.7545" style="stop-color:#F37121"/>
		<stop  offset="0.9761" style="stop-color:#F7901E"/>
		<stop  offset="1" style="stop-color:#F7941E"/>
	</linearGradient>
	<path id="svg_24" fill="url(#svg_24_1_)" d="M115.181-247.924c17.197,21.196-8.539,53.342-40.14,107.476
		c-31.6,54.133,39.082,81.42,44.715,81.948c5.635,0.527-27.463-20.686-16.986-52.901c10.475-32.217,35.666-50.454,41.985-75.048
		C151.077-211.042,97.981-269.119,115.181-247.924z"/>
	
		<linearGradient id="svg_25_1_" gradientUnits="userSpaceOnUse" x1="141.7708" y1="391.5801" x2="141.7708" y2="501.8154" gradientTransform="matrix(1 0 0 -1 0 313)">
		<stop  offset="0" style="stop-color:#ED1C24"/>
		<stop  offset="0.1528" style="stop-color:#EE2624"/>
		<stop  offset="0.3381" style="stop-color:#EF3B24"/>
		<stop  offset="0.5402" style="stop-color:#F05423"/>
		<stop  offset="0.7545" style="stop-color:#F37121"/>
		<stop  offset="0.9761" style="stop-color:#F7901E"/>
		<stop  offset="1" style="stop-color:#F7941E"/>
	</linearGradient>
	<path id="svg_25" fill="url(#svg_25_1_)" d="M155.27-186.497c1.713,3.486,2.516,9.859,0.61,17.382
		c-1.903,7.521-4.573,13.119-10.444,22.287c-5.873,9.167-12.188,15.153-23.044,34.705c-10.859,19.552,11.29,38.844,7.054,32.21
		c-4.235-6.634,0.895-20.08,7.627-28.217c6.732-8.136,11.271-14.501,15.752-21.063c8.963-13.124,11.303-21.515,11.348-28.792
		c0.045-7.276-0.043-9.595-2.916-17.42C158.383-183.229,151.84-193.47,155.27-186.497z"/>
	
		<linearGradient id="svg_26_1_" gradientUnits="userSpaceOnUse" x1="165.8835" y1="375.2949" x2="165.8835" y2="480.9287" gradientTransform="matrix(1 0 0 -1 0 313)">
		<stop  offset="0" style="stop-color:#ED1C24"/>
		<stop  offset="0.1528" style="stop-color:#EE2624"/>
		<stop  offset="0.3381" style="stop-color:#EF3B24"/>
		<stop  offset="0.5402" style="stop-color:#F05423"/>
		<stop  offset="0.7545" style="stop-color:#F37121"/>
		<stop  offset="0.9761" style="stop-color:#F7901E"/>
		<stop  offset="1" style="stop-color:#F7941E"/>
	</linearGradient>
	<path id="svg_26" fill="url(#svg_26_1_)" d="M144.028-63.223c-2.732,4.839-3.512-10.188,1.35-23.196
		c4.861-13.009,20.209-24.451,26.808-36.757c6.6-12.306,10.766-30.915,5.477-40.815c-5.291-9.899,0.935,1.14,5.394,8.224
		s6.969,12.289,6.856,23.873s-3.139,25.165-23.123,42.925C146.803-71.209,146.758-68.062,144.028-63.223z"/>
</g>
<image overflow="visible" width="2000" height="1333" xlink:href="9E31C76D.png"  transform="matrix(0.0882 0 0 0.0929 185.5525 -167.9287)">
</image>
<path fill="none" enable-background="new    " d="z"/>
<g>
	<g>
		
			<linearGradient id="SVGID_9_" gradientUnits="userSpaceOnUse" x1="-97.8254" y1="175.6719" x2="-97.8254" y2="185.3008" gradientTransform="matrix(-1 0 0 -1 -4.0776 313)">
			<stop  offset="0" style="stop-color:#ED1C24"/>
			<stop  offset="1" style="stop-color:#F15A29"/>
		</linearGradient>
		<rect x="89.363" y="127.698" fill="url(#SVGID_9_)" width="8.77" height="9.629"/>
		
			<linearGradient id="SVGID_10_" gradientUnits="userSpaceOnUse" x1="-85.8728" y1="175.6719" x2="-85.8728" y2="185.3008" gradientTransform="matrix(-1 0 0 -1 -4.0776 313)">
			<stop  offset="0" style="stop-color:#ED1C24"/>
			<stop  offset="1" style="stop-color:#F15A29"/>
		</linearGradient>
		<rect x="77.41" y="127.698" fill="url(#SVGID_10_)" width="8.771" height="9.629"/>
		
			<linearGradient id="SVGID_11_" gradientUnits="userSpaceOnUse" x1="-116.0852" y1="154.0908" x2="-116.0852" y2="204.3569" gradientTransform="matrix(-1 0 0 -1 -4.0776 313)">
			<stop  offset="0" style="stop-color:#ED1C24"/>
			<stop  offset="1" style="stop-color:#F15A29"/>
		</linearGradient>
		<path fill="url(#SVGID_11_)" d="M64.945,117.1v41.407l94.125,0.402v-41.205V117.1v-8.457h-45.068v8.457H64.945z M69.302,127.698
			v-3.186h84.771v3.186h-4.922v9.629h4.922v3.185H69.302v-3.185h4.923v-9.629H69.302L69.302,127.698z"/>
		
			<linearGradient id="SVGID_12_" gradientUnits="userSpaceOnUse" x1="-133.7048" y1="175.6719" x2="-133.7048" y2="185.3008" gradientTransform="matrix(-1 0 0 -1 -4.0776 313)">
			<stop  offset="0" style="stop-color:#ED1C24"/>
			<stop  offset="1" style="stop-color:#F15A29"/>
		</linearGradient>
		<rect x="125.242" y="127.698" fill="url(#SVGID_12_)" width="8.771" height="9.629"/>
		
			<linearGradient id="SVGID_13_" gradientUnits="userSpaceOnUse" x1="-109.7786" y1="175.6719" x2="-109.7786" y2="185.3008" gradientTransform="matrix(-1 0 0 -1 -4.0776 313)">
			<stop  offset="0" style="stop-color:#ED1C24"/>
			<stop  offset="1" style="stop-color:#F15A29"/>
		</linearGradient>
		<rect x="101.316" y="127.698" fill="url(#SVGID_13_)" width="8.77" height="9.629"/>
		
			<linearGradient id="SVGID_14_" gradientUnits="userSpaceOnUse" x1="-121.7517" y1="175.6719" x2="-121.7517" y2="185.3008" gradientTransform="matrix(-1 0 0 -1 -4.0776 313)">
			<stop  offset="0" style="stop-color:#ED1C24"/>
			<stop  offset="1" style="stop-color:#F15A29"/>
		</linearGradient>
		<rect x="113.289" y="127.698" fill="url(#SVGID_14_)" width="8.771" height="9.629"/>
		
			<linearGradient id="SVGID_15_" gradientUnits="userSpaceOnUse" x1="-145.6565" y1="175.6719" x2="-145.6565" y2="185.3008" gradientTransform="matrix(-1 0 0 -1 -4.0776 313)">
			<stop  offset="0" style="stop-color:#ED1C24"/>
			<stop  offset="1" style="stop-color:#F15A29"/>
		</linearGradient>
		<rect x="137.195" y="127.698" fill="url(#SVGID_15_)" width="8.768" height="9.629"/>
		
			<linearGradient id="SVGID_16_" gradientUnits="userSpaceOnUse" x1="-207.5476" y1="153.7246" x2="-207.5476" y2="204.3569" gradientTransform="matrix(-1 0 0 -1 -4.0776 313)">
			<stop  offset="0" style="stop-color:#ED1C24"/>
			<stop  offset="1" style="stop-color:#F15A29"/>
		</linearGradient>
		<path fill="url(#SVGID_16_)" d="M228.357,108.643h-63.759v50.285l77.743,0.348v-3.111l-12.979-2.728v-5.638h12.979v-6.041
			L228.357,108.643z M188.579,136.229h-15.192V117.1h15.192V136.229z M219.827,117.1l8.658,23.12l-32.07-3.991V117.1H219.827z"/>
		
			<linearGradient id="SVGID_17_" gradientUnits="userSpaceOnUse" x1="-213.2966" y1="207.1201" x2="-213.2966" y2="216.4746" gradientTransform="matrix(-1 0 0 -1 -4.0776 313)">
			<stop  offset="0" style="stop-color:#ED1C24"/>
			<stop  offset="1" style="stop-color:#F15A29"/>
		</linearGradient>
		<path fill="url(#SVGID_17_)" d="M216.422,103.591v-4.778c0-1.264-1.025-2.288-2.288-2.288h-9.829
			c-1.265,0-2.289,1.024-2.289,2.288v4.778c0,1.262,1.024,2.288,2.289,2.288h9.829C215.415,105.879,216.44,104.853,216.422,103.591z
			"/>
		
			<linearGradient id="SVGID_18_" gradientUnits="userSpaceOnUse" x1="-208.5452" y1="114.917" x2="-208.5452" y2="147.8857" gradientTransform="matrix(-1 0 0 -1 -4.0776 313)">
			<stop  offset="0" style="stop-color:#ED1C24"/>
			<stop  offset="1" style="stop-color:#F15A29"/>
		</linearGradient>
		<path fill="url(#SVGID_18_)" d="M242.342,165.463l-77.743-0.349v15.872h28.558c0.677,9.537,8.658,17.097,18.36,17.097
			c9.721,0,17.683-7.56,18.359-17.097h12.466h1.995v-13.254h-1.995V165.463z M220.759,179.704c0,5.106-4.154,9.244-9.242,9.244
			c-5.107,0-9.245-4.138-9.245-9.244s4.154-9.244,9.245-9.244C216.604,170.46,220.759,174.598,220.759,179.704z"/>
		
			<linearGradient id="SVGID_19_" gradientUnits="userSpaceOnUse" x1="-92.0305" y1="199.8174" x2="-92.0305" y2="204.3564" gradientTransform="matrix(-1 0 0 -1 -4.0776 313)">
			<stop  offset="0" style="stop-color:#ED1C24"/>
			<stop  offset="1" style="stop-color:#F15A29"/>
		</linearGradient>
		<rect x="65.419" y="108.643" fill="url(#SVGID_19_)" width="45.068" height="4.539"/>
		
			<linearGradient id="SVGID_20_" gradientUnits="userSpaceOnUse" x1="-116.0852" y1="114.917" x2="-116.0852" y2="151.7129" gradientTransform="matrix(-1 0 0 -1 -4.0776 313)">
			<stop  offset="0" style="stop-color:#ED1C24"/>
			<stop  offset="1" style="stop-color:#F15A29"/>
		</linearGradient>
		<path fill="url(#SVGID_20_)" d="M79.441,164.73l-14.496-0.057v16.313h6.846c0.676,9.537,8.642,17.097,18.359,17.097
			c9.723,0,17.684-7.56,18.361-17.097h50.559v-15.892l-58.063-0.256c-3.039-2.231-6.793-3.552-10.856-3.552
			C86.16,161.288,82.462,162.57,79.441,164.73z M80.908,179.688c0-5.107,4.154-9.246,9.242-9.246c5.106,0,9.244,4.156,9.244,9.246
			c0,5.105-4.154,9.242-9.244,9.242C85.062,188.93,80.925,184.773,80.908,179.688z"/>
	</g>
</g>
<g>
	<g transform="translate(0.000000,511.000000) scale(0.100000,-0.100000)">
		<path fill="#010101" d="M1970.642,1804.092c-168.652-13.691-349.433-42.5-429.922-66.846
			c-48.633-15.186-162.568-72.92-253.711-127.627C922.4,1386.269,430.164,1193.33-30.168,1091.543
			c-285.615-62.266-477.051-156.494-597.06-291.689c-83.516-95.723-106.318-182.266-106.318-410.137V202.842h-45.596h-45.547V81.299
			V-40.264h315.977h314.492l34.941-74.473c48.633-106.367,153.457-208.105,273.467-264.355
			c91.143-42.559,116.973-48.633,238.535-48.633c121.553,0,147.393,6.074,238.525,48.633
			c120.01,56.191,224.834,157.988,273.477,264.355l34.941,74.473h1276.172H3451.98l27.324-66.855
			c110.898-268.887,473.965-402.578,748.984-276.504c106.309,48.633,220.254,156.504,274.961,259.785l42.559,83.574h232.461h230.781
			V81.299v121.543h-44.043c-39.473,0-45.605,7.637-60.781,66.855c-9.102,37.988-16.719,192.93-16.719,346.406
			c0,311.445-13.691,364.6-104.844,442.051c-62.266,51.66-135.176,71.426-276.504,71.426h-113.926l-475.527,319.014
			c-259.766,174.717-499.785,325.088-530.215,335.732C3331.843,1799.512,2130.173,1817.724,1970.642,1804.092z M3026.482,1571.631
			l288.643-10.645l303.828-202.041c167.09-112.393,309.902-208.115,319.004-215.732c7.637-7.617-293.164-13.691-703.379-13.691
			h-717.002v217.227c0,120,4.531,223.34,10.664,227.871C2540.368,1586.816,2643.65,1586.816,3026.482,1571.631z M2289.704,1349.834
			V1129.58h-709.512H869.245l230.908,112.393c126.084,62.266,277.998,144.355,337.285,182.334
			c167.109,107.871,319.023,139.766,682.129,144.355l170.137,1.484V1349.834z M4626.247,868.252
			c9.102-12.148,18.203-150.43,21.25-343.359l4.561-323.594l-44.043,4.59c-39.473,4.531-45.596,12.148-65.313,88.105
			c-40.996,167.09-177.734,314.473-349.414,379.785c-115.43,44.043-322.051,36.426-434.492-12.148
			c-148.877-66.855-293.183-246.094-322.051-401.094l-10.664-57.754H2175.779H925.437l-18.213,72.93
			C867.693,438.291,759.831,570.498,600.3,654.014c-74.414,39.473-94.18,42.559-247.637,42.559
			c-153.467,0-173.174-3.027-247.637-42.559c-159.541-83.574-267.402-215.723-306.875-378.301l-18.213-72.93h-124.531
			c-75.957,0-132.148,7.637-142.812,18.223c-31.904,31.973-22.793,326.699,10.605,401.094
			c48.633,106.387,188.398,183.828,426.875,233.945c121.553,25.84,265.85,28.887,2394.277,28.887
			C4140.075,886.474,4614.089,881.943,4626.247,868.252z M480.29,442.861c145.84-53.145,233.945-230.898,194.473-388.887
			C601.843-222.529,241.814-289.385,79.246-55.381C-107.61,214.99,168.894,559.834,480.29,442.861z M4143.093,430.732
			c246.104-126.094,243.066-467.891-7.617-595.527c-224.824-115.43-511.924,94.18-470.918,344.844
			C3699.499,406.377,3941.062,532.51,4143.093,430.732z"/>
		<path fill="#010101" d="M1536.15,796.826c-25.84-16.738-62.275-60.781-82.041-100.254c-28.877-59.219-33.457-88.105-27.324-171.68
			c4.58-56.191,19.766-124.59,33.398-151.914c75.967-145.84,305.381-145.84,384.365,0c37.988,69.883,37.988,273.477,0,343.359
			C1788.357,819.619,1637.927,859.15,1536.15,796.826z M1723.005,711.748c75.957-53.145,83.574-241.563,12.129-317.52
			c-65.293-69.883-173.164-39.453-205.058,57.754c-27.324,83.574,12.129,252.207,63.809,271.914
			C1633.415,740.635,1691.091,734.56,1723.005,711.748z"/>
		<path fill="#010101" d="M2639.079,798.369c-75.957-36.484-121.563-133.691-121.563-256.738
			c0-116.973,25.84-182.344,89.648-236.992c98.75-83.574,261.27-39.531,303.828,80.547c12.148,37.969,10.605,47.09-13.691,60.781
			c-45.586,24.277-72.91,18.203-78.984-16.738c-3.047-18.203-22.813-47.07-44.063-63.809c-36.484-25.84-45.586-27.383-83.574-7.617
			c-103.34,48.633-107.852,306.875-6.074,361.582c45.605,24.277,103.281,6.055,124.59-37.988
			c18.223-39.531,48.652-47.09,88.105-22.793c33.457,21.25,1.484,91.133-59.219,132.148
			C2775.818,831.768,2710.505,834.795,2639.079,798.369z"/>
		<path fill="#010101" d="M998.357,544.658V278.799h45.605h45.596v97.227v95.723l94.17,10.586
			c123.047,12.148,165.605,50.117,174.717,156.504c7.617,63.809,3.037,80.547-33.457,123.047
			c-41.016,48.633-41.016,48.633-183.818,48.633H998.357V544.658L998.357,544.658z M1264.216,667.705
			c12.139-36.426,9.102-47.09-21.26-72.93c-25.83-19.746-54.697-27.324-91.133-24.277c-53.154,4.531-54.707,6.074-59.229,77.441
			l-4.59,72.93l80.547-4.59C1241.413,711.748,1250.525,707.236,1264.216,667.705z"/>
		<path fill="#010101" d="M1955.447,537.041V262.08l164.063,4.59l162.578,4.512l4.59,42.578l4.57,41.016h-121.543h-123.047v227.871
			v227.871h-45.605h-45.605V537.041L1955.447,537.041z"/>
		<path fill="#010101" d="M2350.427,537.041V263.564h45.586h45.605v273.477v273.477h-45.605h-45.586V537.041z"/>
		<path fill="#010101" d="M3018.923,537.041V263.564h174.707h174.727v45.605v45.605h-129.121h-129.121v75.957v75.957h113.945
			h113.926v45.586v45.605H3224.06h-113.945v60.723v60.781h121.563h121.563v45.527v45.605H3186.13h-167.09V537.041H3018.923z"/>
	</g>
</g>
</svg>
