<?xml version="1.0" encoding="utf-8"?>
<!-- Generator: Adobe Illustrator 15.1.0, SVG Export Plug-In . SVG Version: 6.00 Build 0)  -->
<!DOCTYPE svg PUBLIC "-//W3C//DTD SVG 1.1//EN" "http://www.w3.org/Graphics/SVG/1.1/DTD/svg11.dtd">
<svg version="1.1" id="Layer_1" xmlns="http://www.w3.org/2000/svg" xmlns:xlink="http://www.w3.org/1999/xlink" x="0px" y="0px"
	 width="297.64px" height="312px" viewBox="0 0 297.64 312" enable-background="new 0 0 297.64 312" xml:space="preserve">
<linearGradient id="SVGID_1_" gradientUnits="userSpaceOnUse" x1="152.646" y1="296.5918" x2="152.646" y2="3.9634">
	<stop  offset="0" style="stop-color:#414042"/>
	<stop  offset="1" style="stop-color:#FFFFFF"/>
</linearGradient>
<ellipse fill="url(#SVGID_1_)" cx="152.646" cy="150.277" rx="141.819" ry="146.314"/>
<linearGradient id="SVGID_2_" gradientUnits="userSpaceOnUse" x1="152.4985" y1="292.6289" x2="152.4985" y2="4.882813e-004">
	<stop  offset="0" style="stop-color:#EF4136"/>
	<stop  offset="1" style="stop-color:#FFFFFF"/>
</linearGradient>
<ellipse fill="url(#SVGID_2_)" cx="152.499" cy="146.314" rx="141.819" ry="146.314"/>
<linearGradient id="SVGID_3_" gradientUnits="userSpaceOnUse" x1="498.6343" y1="1068.998" x2="498.6343" y2="1351.9619" gradientTransform="matrix(-1 0 0 -1 651.2803 1355.9238)">
	<stop  offset="0" style="stop-color:#FFFFFF"/>
	<stop  offset="0.1413" style="stop-color:#FFFFFF"/>
	<stop  offset="1" style="stop-color:#FFFFFF"/>
</linearGradient>
<path fill="url(#SVGID_3_)" d="M15.836,145.446c0-78.14,61.252-141.484,136.812-141.484c75.558,0,136.809,63.344,136.809,141.484
	c0,78.135-61.251,141.479-136.809,141.479C77.088,286.926,15.836,223.581,15.836,145.446z"/>
<linearGradient id="SVGID_4_" gradientUnits="userSpaceOnUse" x1="500.7925" y1="1068.1279" x2="500.7925" y2="1351.0918" gradientTransform="matrix(-1 0 0 -1 651.2803 1355.9238)">
	<stop  offset="0" style="stop-color:#FFFFFF"/>
	<stop  offset="0.1413" style="stop-color:#FFFFFF"/>
	<stop  offset="1" style="stop-color:#FFFFFF"/>
</linearGradient>
<path fill="url(#SVGID_4_)" d="M13.677,146.316c0-78.14,61.252-141.484,136.812-141.484c75.558,0,136.809,63.344,136.809,141.484
	c0,78.135-61.251,141.479-136.809,141.479C74.929,287.796,13.677,224.451,13.677,146.316z"/>
<g>
	
		<linearGradient id="SVGID_5_" gradientUnits="userSpaceOnUse" x1="-71.6528" y1="119.3906" x2="-71.6528" y2="-22.4976" gradientTransform="matrix(-0.9904 -0.1381 -0.1381 0.9904 -184.3825 54.1505)">
		<stop  offset="0" style="stop-color:#BE1E2D"/>
		<stop  offset="0.2297" style="stop-color:#C84430"/>
		<stop  offset="0.734" style="stop-color:#E4883A"/>
		<stop  offset="0.9939" style="stop-color:#FBB040"/>
	</linearGradient>
	<path fill="url(#SVGID_5_)" d="M-135.706,181.479c25.319-12.625,24.411-30.252,31.674-29.24c7.264,1.014-7.607-46.832,7.086-50.84
		c14.695-4.012-18.824-31.571-14.711-35.709c4.111-4.137-20.915-18.289-23.065-27.333"/>
	
		<linearGradient id="SVGID_6_" gradientUnits="userSpaceOnUse" x1="162.3608" y1="176.5303" x2="162.3608" y2="34.6421" gradientTransform="matrix(0.9886 -0.1503 0.1503 0.9886 -322.7115 31.6204)">
		<stop  offset="0" style="stop-color:#BE1E2D"/>
		<stop  offset="0.2297" style="stop-color:#C84430"/>
		<stop  offset="0.734" style="stop-color:#E4883A"/>
		<stop  offset="0.9939" style="stop-color:#FBB040"/>
	</linearGradient>
	<path fill="url(#SVGID_6_)" d="M-129.868,180.864c-25.473-12.313-24.782-29.949-32.032-28.848c-7.25,1.104,7.028-46.92-7.714-50.75
		c-14.743-3.828,18.432-31.798,14.27-35.885c-4.162-4.087,20.686-18.547,22.725-27.616"/>
</g>
<linearGradient id="SVGID_7_" gradientUnits="userSpaceOnUse" x1="-93.1953" y1="177.8682" x2="-93.1953" y2="64.5757">
	<stop  offset="0" style="stop-color:#ED1C24"/>
	<stop  offset="0.1763" style="stop-color:#EE2324"/>
	<stop  offset="0.3309" style="stop-color:#EE3325"/>
	<stop  offset="0.4775" style="stop-color:#EF4826"/>
	<stop  offset="0.619" style="stop-color:#F16029"/>
	<stop  offset="0.757" style="stop-color:#F47A2F"/>
	<stop  offset="0.8905" style="stop-color:#F89637"/>
	<stop  offset="0.9939" style="stop-color:#FBB040"/>
</linearGradient>
<path fill="url(#SVGID_7_)" d="M-112.718,177.711c-13.038-11.29-16.88-32.992-16.88-32.992l8.44-29.646
	c0,0,4.545-14.823,13.202-24.386c8.656-9.563,11.652-15.778,11.886-24.386c0.233-8.606,7.159,17.691,13.218,19.126
	c6.06,1.435,19.91,38.729,20.343,25.342c0.434-13.388,3.03,40.644,5.627,33.471C-54.286,137.068-109.142,180.808-112.718,177.711z"
	/>
<linearGradient id="SVGID_8_" gradientUnits="userSpaceOnUse" x1="-13.3115" y1="247.9961" x2="-13.3115" y2="134.7031" gradientTransform="matrix(-1 0 0 1 385.1084 -10.4863)">
	<stop  offset="0" style="stop-color:#ED1C24"/>
	<stop  offset="0.1763" style="stop-color:#EE2324"/>
	<stop  offset="0.3309" style="stop-color:#EE3325"/>
	<stop  offset="0.4775" style="stop-color:#EF4826"/>
	<stop  offset="0.619" style="stop-color:#F16029"/>
	<stop  offset="0.757" style="stop-color:#F47A2F"/>
	<stop  offset="0.8905" style="stop-color:#F89637"/>
	<stop  offset="0.9939" style="stop-color:#FBB040"/>
</linearGradient>
<path fill="url(#SVGID_8_)" d="M417.941,237.353c13.039-11.29,16.881-32.992,16.881-32.992l-8.439-29.646
	c0,0-4.547-14.823-13.203-24.386c-8.656-9.563-11.652-15.778-11.885-24.386c-0.234-8.606-7.16,17.691-13.219,19.126
	s-19.91,38.729-20.342,25.342c-0.434-13.388-3.031,40.644-5.627,33.471C359.509,196.71,414.365,240.449,417.941,237.353z"/>
<linearGradient id="SVGID_9_" gradientUnits="userSpaceOnUse" x1="383.0708" y1="25.9233" x2="383.0708" y2="-132.0361">
	<stop  offset="0" style="stop-color:#ED1C24"/>
	<stop  offset="0.3197" style="stop-color:#F2652A"/>
	<stop  offset="0.6346" style="stop-color:#F78E35"/>
	<stop  offset="0.8679" style="stop-color:#FAA63C"/>
	<stop  offset="0.9939" style="stop-color:#FBB040"/>
</linearGradient>
<path fill="url(#SVGID_9_)" d="M353.001,25.704c-20.082-15.742-26-46-26-46l13-41.334c0,0,7.001-20.667,20.334-34
	s17.948-22,18.308-33.999c0.359-12,11.025,24.666,20.359,26.666c9.332,2,30.666,53.999,31.332,35.333
	c0.668-18.666,4.668,56.667,8.668,46.667S358.509,30.021,353.001,25.704z"/>
<linearGradient id="SVGID_10_" gradientUnits="userSpaceOnUse" x1="-135.7051" y1="14.5664" x2="-135.7051" y2="-148.8564">
	<stop  offset="0" style="stop-color:#ED1C24"/>
	<stop  offset="0.1557" style="stop-color:#EE2524"/>
	<stop  offset="0.3394" style="stop-color:#EF3A24"/>
	<stop  offset="0.5371" style="stop-color:#F05323"/>
	<stop  offset="0.7449" style="stop-color:#F36F21"/>
	<stop  offset="0.9583" style="stop-color:#F78D1E"/>
	<stop  offset="1" style="stop-color:#F7941E"/>
</linearGradient>
<path fill="url(#SVGID_10_)" d="M-145.744-148.856c8.665,23.223,4.16,35.872-5.547,45.926
	c-10.571,11.09-27.034,19.409-38.645,35.698c-15.423,21.663-18.023,69.32,37.604,81.799c-23.395-12.304-28.42-48.006-3.118-70.359
	c-6.587,21.662,5.546,35.526,20.622,30.501c14.732-5.027,24.437,5.545,24.091,17.676c-0.174,8.319-3.468,15.424-11.959,19.408
	c36.22-6.41,50.776-36.393,50.776-59.267c0-30.155-26.861-34.313-13.344-59.616c-16.117,1.387-21.663,11.956-20.104,29.289
	c1.041,11.438-10.917,19.234-19.754,14.035c-7.107-4.332-6.934-12.65-0.694-18.889C-112.471-95.826-107.272-126.154-145.744-148.856
	z"/>
<g>
	<title>Layer 1</title>
	<linearGradient id="svg_24_1_" gradientUnits="userSpaceOnUse" x1="131.8486" y1="235.5098" x2="131.8486" y2="41.5093">
		<stop  offset="0" style="stop-color:#ED1C24"/>
		<stop  offset="0.1528" style="stop-color:#EE2624"/>
		<stop  offset="0.3381" style="stop-color:#EF3B24"/>
		<stop  offset="0.5402" style="stop-color:#F05423"/>
		<stop  offset="0.7545" style="stop-color:#F37121"/>
		<stop  offset="0.9761" style="stop-color:#F7901E"/>
		<stop  offset="1" style="stop-color:#F7941E"/>
	</linearGradient>
	<path id="svg_24" fill="url(#svg_24_1_)" d="M140.917,46.076c17.198,21.196-8.539,53.342-40.139,107.476
		c-31.6,54.133,39.082,81.42,44.715,81.948c5.634,0.527-27.463-20.686-16.987-52.901c10.475-32.217,35.666-50.454,41.986-75.048
		C176.812,82.958,123.716,24.881,140.917,46.076z"/>
	<linearGradient id="svg_25_1_" gradientUnits="userSpaceOnUse" x1="167.5063" y1="215.4199" x2="167.5064" y2="105.1846">
		<stop  offset="0" style="stop-color:#ED1C24"/>
		<stop  offset="0.1528" style="stop-color:#EE2624"/>
		<stop  offset="0.3381" style="stop-color:#EF3B24"/>
		<stop  offset="0.5402" style="stop-color:#F05423"/>
		<stop  offset="0.7545" style="stop-color:#F37121"/>
		<stop  offset="0.9761" style="stop-color:#F7901E"/>
		<stop  offset="1" style="stop-color:#F7941E"/>
	</linearGradient>
	<path id="svg_25" fill="url(#svg_25_1_)" d="M181.005,107.503c1.713,3.486,2.516,9.859,0.611,17.382
		c-1.904,7.521-4.574,13.119-10.445,22.287c-5.873,9.167-12.188,15.153-23.044,34.705c-10.859,19.552,11.29,38.844,7.054,32.21
		c-4.235-6.634,0.895-20.08,7.627-28.217c6.732-8.136,11.271-14.501,15.752-21.063c8.963-13.124,11.303-21.515,11.348-28.792
		c0.045-7.276-0.043-9.595-2.916-17.42C184.119,110.771,177.576,100.53,181.005,107.503z"/>
	<linearGradient id="svg_26_1_" gradientUnits="userSpaceOnUse" x1="191.6177" y1="231.7051" x2="191.6177" y2="126.0703">
		<stop  offset="0" style="stop-color:#ED1C24"/>
		<stop  offset="0.1528" style="stop-color:#EE2624"/>
		<stop  offset="0.3381" style="stop-color:#EF3B24"/>
		<stop  offset="0.5402" style="stop-color:#F05423"/>
		<stop  offset="0.7545" style="stop-color:#F37121"/>
		<stop  offset="0.9761" style="stop-color:#F7901E"/>
		<stop  offset="1" style="stop-color:#F7941E"/>
	</linearGradient>
	<path id="svg_26" fill="url(#svg_26_1_)" d="M169.763,230.777c-2.732,4.839-3.512-10.188,1.35-23.196
		c4.861-13.009,20.209-24.451,26.807-36.757c6.6-12.306,10.766-30.915,5.477-40.815c-5.291-9.899,0.934,1.14,5.393,8.224
		s6.969,12.289,6.857,23.873s-3.139,25.165-23.123,42.925C172.539,222.791,172.494,225.938,169.763,230.777z"/>
</g>
</svg>
